<mxfile host="app.diagrams.net" modified="2024-03-12T16:08:11.877Z" agent="Mozilla/5.0 (Windows NT 10.0; Win64; x64) AppleWebKit/537.36 (KHTML, like Gecko) Chrome/122.0.0.0 Safari/537.36 Edg/122.0.0.0" etag="LEKIo2x9LLupGHOCyEe_" version="24.0.5" type="onedrive">
  <diagram name="Page-1" id="BdvCZYTir20Y1CT4QCrF">
    <mxGraphModel grid="1" page="1" gridSize="10" guides="1" tooltips="1" connect="1" arrows="1" fold="1" pageScale="1" pageWidth="3300" pageHeight="4681" math="0" shadow="0">
      <root>
        <mxCell id="0" />
        <mxCell id="1" parent="0" />
        <mxCell id="c24vGAHCg1jIvO7zasiV-32" value="" style="shape=rect;html=1;verticalAlign=top;fontStyle=1;whiteSpace=wrap;align=center;rounded=1;fontFamily=Helvetica;fontSize=12;overflow=visible;container=1;strokeOpacity=100;fillColor=#ffe6cc;strokeColor=#33001A;strokeWidth=7;" vertex="1" parent="1">
          <mxGeometry x="1490" y="643" width="1210" height="1387" as="geometry" />
        </mxCell>
        <mxCell id="c24vGAHCg1jIvO7zasiV-44" value="&lt;h2&gt;&lt;font color=&quot;#000000&quot; style=&quot;font-size: 27px;&quot;&gt;Rakusens&amp;nbsp;inventory management&lt;/font&gt;&lt;/h2&gt;" style="text;html=1;align=center;verticalAlign=middle;whiteSpace=wrap;rounded=0;labelBackgroundColor=none;fontColor=#393C56;" vertex="1" parent="c24vGAHCg1jIvO7zasiV-32">
          <mxGeometry x="325.2709990345382" y="13.340061320754716" width="496.81155060911397" height="41.71428571428571" as="geometry" />
        </mxCell>
        <mxCell id="c24vGAHCg1jIvO7zasiV-53" value="" style="endArrow=none;html=1;rounded=1;curved=0;labelBackgroundColor=none;fontColor=default;strokeColor=#CC6600;strokeWidth=4;fillColor=#a20025;entryX=0;entryY=0.489;entryDx=0;entryDy=0;entryPerimeter=0;" edge="1" parent="c24vGAHCg1jIvO7zasiV-32" target="6umlBVhiPSJkJ3J8HWIS-80">
          <mxGeometry width="50" height="50" relative="1" as="geometry">
            <mxPoint x="-100" y="1177" as="sourcePoint" />
            <mxPoint x="130" y="1177.1572789115646" as="targetPoint" />
          </mxGeometry>
        </mxCell>
        <mxCell id="c24vGAHCg1jIvO7zasiV-55" value="" style="endArrow=none;html=1;rounded=1;curved=0;labelBackgroundColor=none;fontColor=default;strokeColor=#CC6600;strokeWidth=4;" edge="1" parent="c24vGAHCg1jIvO7zasiV-32">
          <mxGeometry width="50" height="50" relative="1" as="geometry">
            <mxPoint x="-100" y="1262" as="sourcePoint" />
            <mxPoint x="698" y="1261.509523809524" as="targetPoint" />
          </mxGeometry>
        </mxCell>
        <mxCell id="6umlBVhiPSJkJ3J8HWIS-79" value="&lt;font style=&quot;font-size: 16px;&quot;&gt;&lt;b style=&quot;&quot;&gt;Approve new Production staff members &amp;amp; &lt;br&gt;External Vendors &lt;br&gt;Registration&lt;/b&gt;&lt;/font&gt;" style="ellipse;whiteSpace=wrap;html=1;labelBackgroundColor=none;fillColor=#F2CC8F;strokeColor=#CC6600;fontColor=#393C56;rounded=1;strokeWidth=4;" vertex="1" parent="c24vGAHCg1jIvO7zasiV-32">
          <mxGeometry x="611.50458781362" y="866.875" width="182.15053763440858" height="120.02884615384615" as="geometry" />
        </mxCell>
        <mxCell id="yAOkFR-ZNXgE0mWEb_px-12" value="&lt;div style=&quot;text-align: left;&quot;&gt;&lt;font style=&quot;font-size: 14px;&quot; face=&quot;WordVisi_MSFontService, Calibri, Calibri_EmbeddedFont, Calibri_MSFontService, sans-serif&quot;&gt;&lt;b style=&quot;&quot;&gt;Register&lt;/b&gt;&lt;/font&gt;&lt;/div&gt;&lt;span style=&quot;accent-color: auto; place-content: normal; place-items: normal; place-self: auto; alignment-baseline: auto; animation: 0s ease 0s 1 normal none running none; app-region: none; appearance: none; aspect-ratio: auto; backdrop-filter: none; backface-visibility: visible; background: none 0% 0% / auto repeat scroll padding-box border-box rgba(0, 0, 0, 0); background-blend-mode: normal; baseline-shift: 0px; border-image: none 100% / 1 / 0 stretch; border-color: rgb(0, 0, 0); border-collapse: separate; border-end-end-radius: 0px; border-end-start-radius: 0px; border-width: 0px; border-style: none; border-spacing: 0px; border-start-end-radius: 0px; border-start-start-radius: 0px; border-radius: 0px; inset: auto; box-shadow: none; box-sizing: content-box; break-after: auto; break-before: auto; break-inside: auto; buffered-rendering: auto; caption-side: top; caret-color: rgb(0, 0, 0); clear: none; clip: auto; clip-path: none; clip-rule: nonzero; color-interpolation: srgb; color-interpolation-filters: linearrgb; color-rendering: auto; color-scheme: normal; columns: auto; column-fill: balance; gap: normal; column-rule: 0px rgb(0, 0, 0); column-span: none; contain: none; contain-intrinsic-block-size: none; contain-intrinsic-size: none; contain-intrinsic-inline-size: none; content: normal; content-visibility: visible; counter-increment: none; counter-reset: none; counter-set: none; cursor: text; cx: 0px; cy: 0px; d: none; direction: ltr; display: inline; dominant-baseline: auto; empty-cells: show; fill: rgb(0, 0, 0); fill-opacity: 1; fill-rule: nonzero; filter: none; flex: 0 1 auto; flex-flow: row; float: none; flood-color: rgb(0, 0, 0); flood-opacity: 1; font-family: WordVisi_MSFontService, Calibri, Calibri_EmbeddedFont, Calibri_MSFontService, sans-serif; font-feature-settings: normal; font-kerning: none; font-optical-sizing: auto; font-palette: normal; font-stretch: 100%; font-style: italic; font-synthesis: weight style small-caps; font-variant-ligatures: no-common-ligatures no-discretionary-ligatures no-historical-ligatures no-contextual; font-variant-numeric: normal; font-variant-east-asian: normal; font-variant-alternates: normal; font-variant-position: normal; font-variation-settings: normal; grid-area: auto; grid: none; height: auto; hyphens: manual; image-orientation: from-image; image-rendering: auto; inline-size: auto; inset-block: auto; inset-inline: auto; isolation: auto; lighting-color: rgb(255, 255, 255); line-break: auto; line-height: 18px; list-style: outside none disc; margin: 0px; marker: none; mask-type: luminance; max-height: none; max-width: none; min-height: 0px; min-width: 0px; mix-blend-mode: normal; object-fit: fill; object-position: 50% 50%; offset: normal; opacity: 1; order: 0; outline: rgb(0, 0, 0) none 0px; outline-offset: 0px; overflow: visible; overflow-anchor: auto; overflow-clip-margin: 0px; overflow-wrap: break-word; overscroll-behavior-block: auto; overscroll-behavior-inline: auto; overscroll-behavior: auto; padding: 0px; page: auto; paint-order: normal; perspective: none; perspective-origin: 0px 0px; pointer-events: auto; position: static; quotes: auto; r: 0px; resize: none; ruby-position: over; rx: auto; ry: auto; scroll-behavior: auto; scroll-margin-block: 0px; scroll-margin: 0px; scroll-margin-inline: 0px; scroll-padding-block: auto; scroll-padding: auto; scroll-padding-inline: auto; scroll-snap-align: none; scroll-snap-stop: normal; scroll-snap-type: none; scrollbar-gutter: auto; shape-image-threshold: 0; shape-margin: 0px; shape-outside: none; shape-rendering: auto; speak: normal; stop-color: rgb(0, 0, 0); stop-opacity: 1; stroke: none; stroke-dasharray: none; stroke-dashoffset: 0px; stroke-linecap: butt; stroke-linejoin: miter; stroke-miterlimit: 4; stroke-opacity: 1; stroke-width: 1px; tab-size: 8; table-layout: auto; text-align: left; text-align-last: auto; text-anchor: start; text-combine-upright: none; text-decoration-style: solid; text-decoration-color: rgb(0, 0, 0); text-decoration-skip-ink: auto; text-emphasis: none rgb(0, 0, 0); text-emphasis-position: over; text-orientation: mixed; text-overflow: clip; text-rendering: auto; text-shadow: none; text-size-adjust: auto; text-underline-offset: auto; text-underline-position: auto; touch-action: auto; transform: none; transform-box: view-box; transform-origin: 0px 0px; transform-style: flat; transition: all 0s ease 0s; unicode-bidi: normal; user-select: text; vector-effect: none; vertical-align: baseline; visibility: visible; border-block-end: 0px none rgb(0, 0, 0); border-block-start: 0px none rgb(0, 0, 0); border-inline-end: 0px none rgb(0, 0, 0); -webkit-border-image: none; border-inline-start: 0px none rgb(0, 0, 0); -webkit-box-align: stretch; -webkit-box-decoration-break: slice; -webkit-box-direction: normal; -webkit-box-flex: 0; -webkit-box-ordinal-group: 1; -webkit-box-orient: horizontal; -webkit-box-pack: start; -webkit-font-smoothing: auto; hyphenate-character: auto; -webkit-line-break: auto; -webkit-locale: &amp;quot;en-GB&amp;quot;; block-size: auto; margin-block: 0px; margin-inline: 0px; -webkit-mask-box-image-source: none; -webkit-mask-box-image-slice: 0 fill; -webkit-mask-box-image-width: auto; -webkit-mask-box-image-outset: 0; -webkit-mask-box-image-repeat: stretch; max-block-size: none; max-inline-size: none; min-block-size: 0px; min-inline-size: 0px; padding-block: 0px; padding-inline: 0px; -webkit-print-color-adjust: economy; -webkit-rtl-ordering: logical; -webkit-ruby-position: before; -webkit-tap-highlight-color: rgba(0, 0, 0, 0); -webkit-text-combine: none; -webkit-text-fill-color: rgb(0, 0, 0); -webkit-text-orientation: vertical-right; -webkit-text-security: none; -webkit-text-stroke-color: rgb(0, 0, 0); -webkit-user-drag: none; -webkit-user-modify: read-only; -webkit-writing-mode: horizontal-tb; width: auto; will-change: auto; word-break: normal; writing-mode: horizontal-tb; x: 0px; y: 0px; z-index: auto; zoom: 1;&quot; class=&quot;TextRun SCXW164883968 BCX9&quot; lang=&quot;EN-GB&quot; data-contrast=&quot;auto&quot;&gt;&lt;/span&gt;" style="ellipse;whiteSpace=wrap;html=1;labelBackgroundColor=none;fillColor=#F2CC8F;strokeColor=#8500CC;fontColor=#393C56;rounded=1;strokeWidth=4;" vertex="1" parent="c24vGAHCg1jIvO7zasiV-32">
          <mxGeometry x="936.7741935483868" y="55.04816216566454" width="156.12903225806446" height="104.67924528301887" as="geometry" />
        </mxCell>
        <mxCell id="yAOkFR-ZNXgE0mWEb_px-13" value="&lt;font style=&quot;font-size: 16px;&quot; face=&quot;WordVisi_MSFontService, Calibri, Calibri_EmbeddedFont, Calibri_MSFontService, sans-serif&quot;&gt;&lt;b style=&quot;&quot;&gt;Login&lt;/b&gt;&lt;/font&gt;&lt;br&gt;&lt;div style=&quot;text-align: left;&quot;&gt;&lt;/div&gt;" style="ellipse;whiteSpace=wrap;html=1;labelBackgroundColor=none;fillColor=#F2CC8F;strokeColor=#8500CC;fontColor=#393C56;rounded=1;strokeWidth=4;" vertex="1" parent="c24vGAHCg1jIvO7zasiV-32">
          <mxGeometry x="969.301075268817" y="287.86238860667635" width="156.12903225806446" height="104.67924528301887" as="geometry" />
        </mxCell>
        <mxCell id="yAOkFR-ZNXgE0mWEb_px-15" value="&lt;font style=&quot;font-size: 16px;&quot; face=&quot;WordVisi_MSFontService, Calibri, Calibri_EmbeddedFont, Calibri_MSFontService, sans-serif&quot;&gt;&lt;b style=&quot;&quot;&gt;View Rakusens products&lt;/b&gt;&lt;/font&gt;&lt;br&gt;&lt;div style=&quot;text-align: left;&quot;&gt;&lt;/div&gt;" style="ellipse;whiteSpace=wrap;html=1;labelBackgroundColor=none;fillColor=#F2CC8F;strokeColor=#8500CC;fontColor=#393C56;rounded=1;strokeWidth=4;" vertex="1" parent="c24vGAHCg1jIvO7zasiV-32">
          <mxGeometry x="920" y="685.952380952381" width="153.33" height="101.33591836734695" as="geometry" />
        </mxCell>
        <mxCell id="c24vGAHCg1jIvO7zasiV-60" value="" style="endArrow=none;html=1;rounded=1;curved=0;labelBackgroundColor=none;fontColor=default;strokeColor=#FF0000;strokeWidth=4;exitX=0.688;exitY=0.08;exitDx=0;exitDy=0;exitPerimeter=0;" edge="1" parent="c24vGAHCg1jIvO7zasiV-32" source="c24vGAHCg1jIvO7zasiV-32">
          <mxGeometry width="50" height="50" relative="1" as="geometry">
            <mxPoint x="832.6881720430106" y="173.375" as="sourcePoint" />
            <mxPoint x="843.3333333333333" y="920.221153846154" as="targetPoint" />
          </mxGeometry>
        </mxCell>
        <mxCell id="c24vGAHCg1jIvO7zasiV-61" value="" style="endArrow=open;endFill=1;endSize=12;html=1;rounded=1;strokeColor=#FF0000;strokeWidth=4;" edge="1" parent="c24vGAHCg1jIvO7zasiV-32">
          <mxGeometry width="160" relative="1" as="geometry">
            <mxPoint x="843.3337275985663" y="920.2203989477505" as="sourcePoint" />
            <mxPoint x="794.4444444444443" y="920.221153846154" as="targetPoint" />
          </mxGeometry>
        </mxCell>
        <mxCell id="yAOkFR-ZNXgE0mWEb_px-16" value="&lt;font style=&quot;font-size: 16px;&quot; face=&quot;WordVisi_MSFontService, Calibri, Calibri_EmbeddedFont, Calibri_MSFontService, sans-serif&quot;&gt;&lt;b style=&quot;&quot;&gt;Place orders or&amp;nbsp;&lt;/b&gt;&lt;/font&gt;&lt;div&gt;&lt;font size=&quot;3&quot; style=&quot;&quot; face=&quot;WordVisi_MSFontService, Calibri, Calibri_EmbeddedFont, Calibri_MSFontService, sans-serif&quot;&gt;&lt;b&gt;purchase products&amp;nbsp;&lt;/b&gt;&lt;/font&gt;&lt;/div&gt;&lt;div&gt;&lt;font size=&quot;3&quot; style=&quot;&quot; face=&quot;WordVisi_MSFontService, Calibri, Calibri_EmbeddedFont, Calibri_MSFontService, sans-serif&quot;&gt;&lt;b style=&quot;&quot;&gt;in bulks&lt;/b&gt;&lt;/font&gt;&lt;br&gt;&lt;div style=&quot;text-align: left;&quot;&gt;&lt;/div&gt;&lt;/div&gt;" style="ellipse;whiteSpace=wrap;html=1;labelBackgroundColor=none;fillColor=#F2CC8F;strokeColor=#8500CC;fontColor=#393C56;rounded=1;strokeWidth=4;" vertex="1" parent="c24vGAHCg1jIvO7zasiV-32">
          <mxGeometry x="980" y="820" width="177.26" height="132.03" as="geometry" />
        </mxCell>
        <mxCell id="yAOkFR-ZNXgE0mWEb_px-14" value="&lt;font style=&quot;font-size: 16px;&quot; face=&quot;WordVisi_MSFontService, Calibri, Calibri_EmbeddedFont, Calibri_MSFontService, sans-serif&quot;&gt;&lt;b style=&quot;&quot;&gt;View the insights of&lt;br&gt;&amp;nbsp;what they have &lt;br&gt;ordered&lt;/b&gt;&lt;/font&gt;&lt;br&gt;&lt;div style=&quot;text-align: left;&quot;&gt;&lt;/div&gt;" style="ellipse;whiteSpace=wrap;html=1;labelBackgroundColor=none;fillColor=#F2CC8F;strokeColor=#8500CC;fontColor=#393C56;rounded=1;strokeWidth=4;" vertex="1" parent="c24vGAHCg1jIvO7zasiV-32">
          <mxGeometry x="871.1847572815533" y="983.713238095238" width="182.14611650485438" height="107.95955102040817" as="geometry" />
        </mxCell>
        <mxCell id="6umlBVhiPSJkJ3J8HWIS-59" value="&lt;b&gt;&lt;font style=&quot;font-size: 16px;&quot;&gt;Oversees the Booking in/out of raw&amp;nbsp;&lt;/font&gt;&lt;/b&gt;&lt;div&gt;&lt;b&gt;&lt;font size=&quot;3&quot; style=&quot;&quot;&gt;ingredient&#39;s&lt;/font&gt;&lt;/b&gt;&lt;/div&gt;" style="ellipse;whiteSpace=wrap;html=1;labelBackgroundColor=none;fillColor=#F2CC8F;strokeColor=#3333FF;fontColor=#393C56;rounded=1;strokeWidth=4;" vertex="1" parent="c24vGAHCg1jIvO7zasiV-32">
          <mxGeometry x="50.86155444200854" y="248.526122056515" width="169.13978494623655" height="120.02884615384615" as="geometry" />
        </mxCell>
        <mxCell id="yAOkFR-ZNXgE0mWEb_px-9" value="&lt;font style=&quot;font-size: 14px;&quot;&gt;&lt;b style=&quot;&quot;&gt;&amp;lt;&amp;lt;Include&amp;gt;&amp;gt;&lt;/b&gt;&lt;/font&gt;" style="text;html=1;align=center;verticalAlign=middle;whiteSpace=wrap;rounded=1;labelBackgroundColor=none;fontColor=#393C56;" vertex="1" parent="c24vGAHCg1jIvO7zasiV-32">
          <mxGeometry x="247.20354838709682" y="281.8605731292518" width="78.06451612903223" height="26.67307692307692" as="geometry" />
        </mxCell>
        <mxCell id="6umlBVhiPSJkJ3J8HWIS-71" value="&lt;div style=&quot;border-color: var(--border-color);&quot;&gt;&lt;b style=&quot;&quot;&gt;&lt;font style=&quot;font-size: 16px;&quot;&gt;All SKU codes are automatically generated&amp;nbsp;&lt;/font&gt;&lt;/b&gt;&lt;/div&gt;&lt;div style=&quot;border-color: var(--border-color);&quot;&gt;&lt;font size=&quot;3&quot;&gt;&lt;b&gt;and assigned&lt;/b&gt;&lt;span style=&quot;background-color: initial;&quot;&gt;&lt;b&gt;&amp;nbsp;&lt;/b&gt;&lt;/span&gt;&lt;b style=&quot;background-color: initial;&quot;&gt;to&amp;nbsp;&lt;/b&gt;&lt;/font&gt;&lt;/div&gt;&lt;div style=&quot;border-color: var(--border-color);&quot;&gt;&lt;b style=&quot;font-size: medium; background-color: initial;&quot;&gt;each&amp;nbsp;&lt;/b&gt;&lt;b style=&quot;font-size: medium; background-color: initial;&quot;&gt;received&amp;nbsp;&lt;/b&gt;&lt;/div&gt;&lt;div style=&quot;border-color: var(--border-color);&quot;&gt;&lt;b style=&quot;font-size: medium; background-color: initial;&quot;&gt;ingredient.&lt;/b&gt;&lt;/div&gt;" style="ellipse;whiteSpace=wrap;html=1;labelBackgroundColor=none;fillColor=#F2CC8F;strokeColor=#3333FF;fontColor=#393C56;rounded=1;strokeWidth=4;" vertex="1" parent="c24vGAHCg1jIvO7zasiV-32">
          <mxGeometry x="360" y="219.7121224489796" width="200" height="150.96598639455783" as="geometry" />
        </mxCell>
        <mxCell id="6umlBVhiPSJkJ3J8HWIS-73" value="" style="endArrow=block;dashed=1;endFill=0;endSize=12;html=1;rounded=1;fontFamily=Helvetica;fontSize=12;fontColor=default;entryX=-0.005;entryY=0.61;entryDx=0;entryDy=0;entryPerimeter=0;labelBackgroundColor=none;strokeColor=#E07A5F;exitX=1;exitY=0.5;exitDx=0;exitDy=0;strokeWidth=4;" edge="1" parent="c24vGAHCg1jIvO7zasiV-32" source="6umlBVhiPSJkJ3J8HWIS-59" target="6umlBVhiPSJkJ3J8HWIS-71">
          <mxGeometry width="160" relative="1" as="geometry">
            <mxPoint x="338.2795698924731" y="640.1538461538462" as="sourcePoint" />
            <mxPoint x="598.4946236559138" y="626.8173076923077" as="targetPoint" />
            <Array as="points" />
          </mxGeometry>
        </mxCell>
        <mxCell id="c24vGAHCg1jIvO7zasiV-59" value="" style="endArrow=none;html=1;rounded=1;curved=0;labelBackgroundColor=none;fontColor=default;strokeColor=#FF0000;strokeWidth=4;entryX=0;entryY=0.626;entryDx=0;entryDy=0;entryPerimeter=0;" edge="1" parent="c24vGAHCg1jIvO7zasiV-32">
          <mxGeometry width="50" height="50" relative="1" as="geometry">
            <mxPoint x="826.1859498207882" y="111.84211675824179" as="sourcePoint" />
            <mxPoint x="943.2827240143367" y="111.46089306448297" as="targetPoint" />
          </mxGeometry>
        </mxCell>
        <mxCell id="c24vGAHCg1jIvO7zasiV-94" value="&lt;b style=&quot;border-color: var(--border-color);&quot;&gt;&lt;font style=&quot;font-size: 16px;&quot;&gt;Display Login Error&lt;/font&gt;&lt;/b&gt;" style="ellipse;whiteSpace=wrap;html=1;labelBackgroundColor=none;fillColor=#F2CC8F;strokeColor=#8500CC;fontColor=#393C56;rounded=1;strokeWidth=4;" vertex="1" parent="c24vGAHCg1jIvO7zasiV-32">
          <mxGeometry x="851.52" y="502.0562585034014" width="138.48" height="82.93693877551021" as="geometry" />
        </mxCell>
        <mxCell id="c24vGAHCg1jIvO7zasiV-97" value="&lt;font style=&quot;font-size: 14px;&quot;&gt;&lt;b style=&quot;&quot;&gt;&amp;lt;&amp;lt;Include&amp;gt;&amp;gt;&lt;/b&gt;&lt;/font&gt;" style="text;html=1;align=center;verticalAlign=middle;whiteSpace=wrap;rounded=1;labelBackgroundColor=none;fontColor=#393C56;" vertex="1" parent="c24vGAHCg1jIvO7zasiV-32">
          <mxGeometry x="1063.3333333333333" y="392.5427739403454" width="73.33333333333333" height="26.67307692307692" as="geometry" />
        </mxCell>
        <mxCell id="c24vGAHCg1jIvO7zasiV-99" value="" style="endArrow=block;dashed=1;endFill=0;endSize=12;html=1;rounded=1;fontFamily=Helvetica;fontSize=12;fontColor=default;labelBackgroundColor=none;strokeColor=#E07A5F;entryX=0.798;entryY=0.365;entryDx=0;entryDy=0;strokeWidth=4;entryPerimeter=0;exitX=0.5;exitY=0;exitDx=0;exitDy=0;" edge="1" parent="c24vGAHCg1jIvO7zasiV-32" source="c24vGAHCg1jIvO7zasiV-94">
          <mxGeometry width="160" relative="1" as="geometry">
            <mxPoint x="969.2955555555553" y="506.7884615384616" as="sourcePoint" />
            <mxPoint x="993.7399999999999" y="381.224951923077" as="targetPoint" />
          </mxGeometry>
        </mxCell>
        <mxCell id="c24vGAHCg1jIvO7zasiV-100" value="&lt;font style=&quot;font-size: 14px;&quot;&gt;&lt;b style=&quot;&quot;&gt;&amp;lt;&amp;lt;Extend&amp;gt;&amp;gt;&lt;/b&gt;&lt;/font&gt;" style="text;html=1;align=center;verticalAlign=middle;whiteSpace=wrap;rounded=1;labelBackgroundColor=none;fontColor=#393C56;arcSize=0;" vertex="1" parent="c24vGAHCg1jIvO7zasiV-32">
          <mxGeometry x="889.4577777777776" y="421.2350209314495" width="73.33333333333333" height="26.67307692307692" as="geometry" />
        </mxCell>
        <mxCell id="5ZjHrZqPGNpx0JmI3Ot3-11" value="" style="endArrow=none;html=1;rounded=1;curved=0;labelBackgroundColor=none;fontColor=default;strokeColor=#CC6600;strokeWidth=4;exitX=0.576;exitY=0.712;exitDx=0;exitDy=0;exitPerimeter=0;" edge="1" parent="c24vGAHCg1jIvO7zasiV-32" source="c24vGAHCg1jIvO7zasiV-32">
          <mxGeometry width="50" height="50" relative="1" as="geometry">
            <mxPoint x="696.776666666667" y="1160.2846337082728" as="sourcePoint" />
            <mxPoint x="697" y="1261.509523809524" as="targetPoint" />
          </mxGeometry>
        </mxCell>
        <mxCell id="5ZjHrZqPGNpx0JmI3Ot3-12" value="" style="endArrow=none;html=1;rounded=1;curved=0;labelBackgroundColor=none;fontColor=default;strokeColor=#8500CC;strokeWidth=4;" edge="1" parent="c24vGAHCg1jIvO7zasiV-32">
          <mxGeometry width="50" height="50" relative="1" as="geometry">
            <mxPoint x="1092.9001941747572" y="99.07142857142857" as="sourcePoint" />
            <mxPoint x="1233.4951456310673" y="99.07142857142857" as="targetPoint" />
          </mxGeometry>
        </mxCell>
        <mxCell id="c24vGAHCg1jIvO7zasiV-95" value="" style="endArrow=block;dashed=1;endFill=0;endSize=12;html=1;rounded=1;fontFamily=Helvetica;fontSize=12;fontColor=default;labelBackgroundColor=none;strokeColor=#E07A5F;exitX=0.5;exitY=1;exitDx=0;exitDy=0;entryX=0.34;entryY=0.022;entryDx=0;entryDy=0;strokeWidth=4;entryPerimeter=0;" edge="1" parent="c24vGAHCg1jIvO7zasiV-32" source="yAOkFR-ZNXgE0mWEb_px-13">
          <mxGeometry width="160" relative="1" as="geometry">
            <mxPoint x="1010.2912621359221" y="463.1589285714286" as="sourcePoint" />
            <mxPoint x="1079.4348" y="454.766163265306" as="targetPoint" />
          </mxGeometry>
        </mxCell>
        <mxCell id="6umlBVhiPSJkJ3J8HWIS-38" value="&lt;font style=&quot;font-size: 16px;&quot;&gt;&lt;b style=&quot;&quot;&gt;Login&lt;/b&gt;&lt;/font&gt;" style="ellipse;whiteSpace=wrap;html=1;labelBackgroundColor=none;fillColor=#F2CC8F;strokeColor=#00FF00;fontColor=#393C56;rounded=1;strokeWidth=4;" vertex="1" parent="c24vGAHCg1jIvO7zasiV-32">
          <mxGeometry x="180" y="110.39387755102041" width="120" height="75.48299319727892" as="geometry" />
        </mxCell>
        <mxCell id="6umlBVhiPSJkJ3J8HWIS-40" value="&lt;b style=&quot;&quot;&gt;&lt;font style=&quot;font-size: 16px;&quot;&gt;Can Reset&amp;nbsp;&lt;/font&gt;&lt;/b&gt;&lt;div&gt;&lt;b style=&quot;&quot;&gt;&lt;font size=&quot;3&quot;&gt;Password after logged in&lt;/font&gt;&lt;/b&gt;&lt;br&gt;&lt;/div&gt;" style="ellipse;whiteSpace=wrap;html=1;labelBackgroundColor=none;fillColor=#F2CC8F;strokeColor=#00FF00;fontColor=#393C56;rounded=1;strokeWidth=4;" vertex="1" parent="c24vGAHCg1jIvO7zasiV-32">
          <mxGeometry x="420" y="84.91836734693878" width="160" height="113.22448979591837" as="geometry" />
        </mxCell>
        <mxCell id="6umlBVhiPSJkJ3J8HWIS-45" value="&lt;font style=&quot;font-size: 16px;&quot;&gt;&lt;font style=&quot;&quot;&gt;&lt;b style=&quot;&quot;&gt;Display Login&amp;nbsp;&lt;/b&gt;&lt;/font&gt;&lt;b style=&quot;background-color: initial;&quot;&gt;Error&amp;nbsp;&lt;/b&gt;&lt;/font&gt;&lt;div&gt;&lt;div&gt;&lt;font size=&quot;3&quot; style=&quot;&quot;&gt;&lt;b style=&quot;&quot;&gt;if entered&amp;nbsp;&lt;/b&gt;&lt;/font&gt;&lt;/div&gt;&lt;div&gt;&lt;font size=&quot;3&quot; style=&quot;&quot;&gt;&lt;b style=&quot;&quot;&gt;wrong details&lt;/b&gt;&lt;/font&gt;&lt;/div&gt;&lt;/div&gt;" style="ellipse;whiteSpace=wrap;html=1;labelBackgroundColor=none;fillColor=#F2CC8F;strokeColor=#00FF00;fontColor=#393C56;rounded=1;strokeWidth=4;" vertex="1" parent="c24vGAHCg1jIvO7zasiV-32">
          <mxGeometry x="650" y="185.8768707482993" width="160" height="122.65986394557824" as="geometry" />
        </mxCell>
        <mxCell id="yAOkFR-ZNXgE0mWEb_px-25" value="" style="endArrow=block;dashed=1;endFill=0;endSize=12;html=1;rounded=1;entryX=0.957;entryY=0.849;entryDx=0;entryDy=0;entryPerimeter=0;labelBackgroundColor=none;strokeColor=#E07A5F;fontColor=default;exitX=0;exitY=0.5;exitDx=0;exitDy=0;strokeWidth=4;" edge="1" parent="c24vGAHCg1jIvO7zasiV-32" source="6umlBVhiPSJkJ3J8HWIS-45" target="6umlBVhiPSJkJ3J8HWIS-38">
          <mxGeometry width="160" relative="1" as="geometry">
            <mxPoint x="430" y="481.2040816326531" as="sourcePoint" />
            <mxPoint x="590" y="481.2040816326531" as="targetPoint" />
          </mxGeometry>
        </mxCell>
        <mxCell id="yAOkFR-ZNXgE0mWEb_px-18" value="&lt;font style=&quot;font-size: 14px;&quot;&gt;&lt;b style=&quot;&quot;&gt;&amp;lt;&amp;lt;Extend&amp;gt;&amp;gt;&lt;/b&gt;&lt;/font&gt;" style="text;html=1;align=center;verticalAlign=middle;whiteSpace=wrap;rounded=1;labelBackgroundColor=none;fontColor=#393C56;" vertex="1" parent="c24vGAHCg1jIvO7zasiV-32">
          <mxGeometry x="575" y="214.1829931972789" width="60" height="18.87074829931973" as="geometry" />
        </mxCell>
        <mxCell id="c24vGAHCg1jIvO7zasiV-17" value="&lt;font style=&quot;font-size: 14px;&quot;&gt;&lt;b style=&quot;&quot;&gt;&amp;lt;&amp;lt;Include&amp;gt;&amp;gt;&lt;/b&gt;&lt;/font&gt;" style="text;html=1;align=center;verticalAlign=middle;whiteSpace=wrap;rounded=1;labelBackgroundColor=none;fontColor=#393C56;" vertex="1" parent="c24vGAHCg1jIvO7zasiV-32">
          <mxGeometry x="229.99999999999997" y="419.21367346938774" width="60" height="18.87074829931973" as="geometry" />
        </mxCell>
        <mxCell id="c24vGAHCg1jIvO7zasiV-20" value="&lt;font style=&quot;font-size: 16px;&quot;&gt;&lt;b style=&quot;&quot;&gt;Receive automated alerts for . . .&lt;/b&gt;&lt;/font&gt;" style="ellipse;whiteSpace=wrap;html=1;labelBackgroundColor=none;fillColor=#F2CC8F;strokeColor=#00FF00;fontColor=#393C56;rounded=1;strokeWidth=4;" vertex="1" parent="c24vGAHCg1jIvO7zasiV-32">
          <mxGeometry x="60.85999999999999" y="997.3190476190476" width="138.87" height="94.35374149659864" as="geometry" />
        </mxCell>
        <mxCell id="6umlBVhiPSJkJ3J8HWIS-80" value="&lt;font style=&quot;font-size: 16px;&quot;&gt;&lt;b style=&quot;&quot;&gt;Oversee all Users&lt;/b&gt;&lt;/font&gt;" style="ellipse;whiteSpace=wrap;html=1;labelBackgroundColor=none;fillColor=#F2CC8F;strokeColor=#CC6600;fontColor=#393C56;rounded=1;strokeWidth=4;" vertex="1" parent="c24vGAHCg1jIvO7zasiV-32">
          <mxGeometry x="140" y="1138.8496598639456" width="130" height="78.31360544217688" as="geometry" />
        </mxCell>
        <mxCell id="6umlBVhiPSJkJ3J8HWIS-81" value="&lt;font style=&quot;font-size: 16px;&quot;&gt;&lt;b style=&quot;&quot;&gt;Edit/Modify/&lt;/b&gt;&lt;/font&gt;&lt;div&gt;&lt;font style=&quot;font-size: 16px;&quot;&gt;&lt;b style=&quot;&quot;&gt;Deactivate&amp;nbsp;&lt;/b&gt;&lt;/font&gt;&lt;div&gt;&lt;font size=&quot;3&quot; style=&quot;&quot;&gt;&lt;b&gt;all&amp;nbsp;users within&amp;nbsp;&lt;/b&gt;&lt;/font&gt;&lt;div&gt;&lt;font size=&quot;3&quot; style=&quot;&quot;&gt;&lt;b style=&quot;&quot;&gt;the system&amp;nbsp;&lt;/b&gt;&lt;/font&gt;&lt;/div&gt;&lt;/div&gt;&lt;/div&gt;" style="ellipse;whiteSpace=wrap;html=1;labelBackgroundColor=none;fillColor=#F2CC8F;strokeColor=#CC6600;fontColor=#393C56;rounded=1;strokeWidth=4;" vertex="1" parent="c24vGAHCg1jIvO7zasiV-32">
          <mxGeometry x="385.27" y="1116.676530612245" width="180" height="122.65986394557824" as="geometry" />
        </mxCell>
        <mxCell id="5ZjHrZqPGNpx0JmI3Ot3-30" value="" style="endArrow=none;html=1;rounded=1;curved=0;labelBackgroundColor=none;fontColor=default;strokeColor=#FF0000;strokeWidth=4;exitX=0;exitY=0;exitDx=0;exitDy=0;" edge="1" parent="c24vGAHCg1jIvO7zasiV-32" source="yAOkFR-ZNXgE0mWEb_px-12">
          <mxGeometry width="50" height="50" relative="1" as="geometry">
            <mxPoint x="948.3099999999997" y="66.04761904761904" as="sourcePoint" />
            <mxPoint x="-320" y="67" as="targetPoint" />
          </mxGeometry>
        </mxCell>
        <mxCell id="5ZjHrZqPGNpx0JmI3Ot3-35" value="" style="endArrow=none;html=1;rounded=1;curved=0;labelBackgroundColor=none;fontColor=default;strokeColor=#00FF00;entryX=0;entryY=0.5;entryDx=0;entryDy=0;strokeWidth=4;" edge="1" parent="c24vGAHCg1jIvO7zasiV-32">
          <mxGeometry width="50" height="50" relative="1" as="geometry">
            <mxPoint x="-40.6" y="151.126387755102" as="sourcePoint" />
            <mxPoint x="179.9975268817204" y="150.96195342258787" as="targetPoint" />
          </mxGeometry>
        </mxCell>
        <mxCell id="5ZjHrZqPGNpx0JmI3Ot3-36" value="&lt;b&gt;&lt;font style=&quot;font-size: 16px;&quot;&gt;Can Reset&amp;nbsp;&lt;/font&gt;&lt;/b&gt;&lt;div&gt;&lt;b&gt;&lt;font size=&quot;3&quot;&gt;Password after logged in&lt;/font&gt;&lt;/b&gt;&lt;/div&gt;" style="ellipse;whiteSpace=wrap;html=1;labelBackgroundColor=none;fillColor=#F2CC8F;strokeColor=#8500CC;fontColor=#393C56;rounded=1;strokeWidth=4;" vertex="1" parent="c24vGAHCg1jIvO7zasiV-32">
          <mxGeometry x="1053.33" y="465.3140816326529" width="116.67" height="94.73115646258505" as="geometry" />
        </mxCell>
        <mxCell id="VvvtwUxV3Y3XeBkal5bb-1" value="&lt;b style=&quot;&quot;&gt;&lt;font style=&quot;font-size: 16px;&quot;&gt;Handling the booking&lt;/font&gt;&lt;/b&gt;&lt;div&gt;&lt;b style=&quot;&quot;&gt;&lt;font size=&quot;3&quot;&gt;&amp;nbsp;in of products&lt;/font&gt;&lt;/b&gt;&lt;/div&gt;" style="ellipse;whiteSpace=wrap;html=1;labelBackgroundColor=none;fillColor=#F2CC8F;strokeColor=#3333FF;fontColor=#393C56;rounded=1;strokeWidth=4;" vertex="1" parent="c24vGAHCg1jIvO7zasiV-32">
          <mxGeometry x="42.69155444200854" y="384.0180948456306" width="169.13978494623655" height="120.02884615384615" as="geometry" />
        </mxCell>
        <mxCell id="VvvtwUxV3Y3XeBkal5bb-2" value="&lt;div style=&quot;border-color: var(--border-color);&quot;&gt;&lt;b style=&quot;&quot;&gt;&lt;font style=&quot;font-size: 16px;&quot;&gt;The received Products&amp;nbsp;&lt;/font&gt;&lt;/b&gt;&lt;/div&gt;&lt;div style=&quot;border-color: var(--border-color);&quot;&gt;&lt;span style=&quot;background-color: initial;&quot;&gt;&lt;b style=&quot;&quot;&gt;&lt;font size=&quot;3&quot;&gt;would be recorded by inputting BBD, product type and quantity.&amp;nbsp;&lt;/font&gt;&lt;/b&gt;&lt;/span&gt;&lt;/div&gt;" style="ellipse;whiteSpace=wrap;html=1;labelBackgroundColor=none;fillColor=#F2CC8F;strokeColor=#3333FF;fontColor=#393C56;rounded=1;strokeWidth=4;" vertex="1" parent="c24vGAHCg1jIvO7zasiV-32">
          <mxGeometry x="315" y="390.2376394557823" width="205" height="126.4057074829932" as="geometry" />
        </mxCell>
        <mxCell id="VvvtwUxV3Y3XeBkal5bb-3" value="" style="endArrow=block;dashed=1;endFill=0;endSize=12;html=1;rounded=1;fontFamily=Helvetica;fontSize=12;fontColor=default;entryX=0.019;entryY=0.416;entryDx=0;entryDy=0;entryPerimeter=0;labelBackgroundColor=none;strokeColor=#E07A5F;exitX=1;exitY=0.5;exitDx=0;exitDy=0;strokeWidth=4;" edge="1" parent="c24vGAHCg1jIvO7zasiV-32" target="VvvtwUxV3Y3XeBkal5bb-2">
          <mxGeometry width="160" relative="1" as="geometry">
            <mxPoint x="214.26999999999998" y="443.17008843537417" as="sourcePoint" />
            <mxPoint x="385.27" y="443.17008843537417" as="targetPoint" />
          </mxGeometry>
        </mxCell>
        <mxCell id="VvvtwUxV3Y3XeBkal5bb-4" value="&lt;b style=&quot;&quot;&gt;&lt;font style=&quot;font-size: 16px;&quot;&gt;Handling orders/Booking out of Products&lt;/font&gt;&lt;/b&gt;" style="ellipse;whiteSpace=wrap;html=1;labelBackgroundColor=none;fillColor=#F2CC8F;strokeColor=#3333FF;fontColor=#393C56;rounded=1;strokeWidth=4;" vertex="1" parent="c24vGAHCg1jIvO7zasiV-32">
          <mxGeometry x="42.69155444200854" y="525.5487070905285" width="169.13978494623655" height="120.02884615384615" as="geometry" />
        </mxCell>
        <mxCell id="VvvtwUxV3Y3XeBkal5bb-5" value="&lt;div style=&quot;border-color: var(--border-color);&quot;&gt;&lt;div style=&quot;border-color: var(--border-color);&quot;&gt;&lt;font style=&quot;font-size: 16px;&quot;&gt;&lt;b style=&quot;background-color: initial;&quot;&gt;Before&amp;nbsp;&lt;/b&gt;&lt;/font&gt;&lt;/div&gt;&lt;div style=&quot;border-color: var(--border-color);&quot;&gt;&lt;font size=&quot;3&quot; style=&quot;&quot;&gt;&lt;b style=&quot;background-color: initial;&quot;&gt;accepting the&amp;nbsp;&lt;/b&gt;&lt;br&gt;&lt;/font&gt;&lt;/div&gt;&lt;div style=&quot;border-color: var(--border-color);&quot;&gt;&lt;font size=&quot;3&quot;&gt;&lt;b&gt;order, it is ensured that there&amp;nbsp;&lt;/b&gt;&lt;b style=&quot;background-color: initial;&quot;&gt;is enough&amp;nbsp;&lt;/b&gt;&lt;/font&gt;&lt;/div&gt;&lt;div style=&quot;border-color: var(--border-color);&quot;&gt;&lt;b style=&quot;background-color: initial;&quot;&gt;&lt;font size=&quot;3&quot;&gt;stock to fulfil it.&lt;/font&gt;&lt;/b&gt;&lt;/div&gt;&lt;/div&gt;" style="ellipse;whiteSpace=wrap;html=1;labelBackgroundColor=none;fillColor=#F2CC8F;strokeColor=#3333FF;fontColor=#393C56;rounded=1;strokeWidth=4;" vertex="1" parent="c24vGAHCg1jIvO7zasiV-32">
          <mxGeometry x="310" y="525.5503401360544" width="191.72" height="130.98186394557823" as="geometry" />
        </mxCell>
        <mxCell id="VvvtwUxV3Y3XeBkal5bb-64" value="" style="endArrow=block;dashed=1;endFill=0;endSize=12;html=1;rounded=1;fontFamily=Helvetica;fontSize=12;fontColor=default;labelBackgroundColor=none;strokeColor=#E07A5F;strokeWidth=4;" edge="1" parent="c24vGAHCg1jIvO7zasiV-32">
          <mxGeometry width="160" relative="1" as="geometry">
            <mxPoint x="211.83" y="578.9168163265306" as="sourcePoint" />
            <mxPoint x="321.83" y="581.7474285714285" as="targetPoint" />
          </mxGeometry>
        </mxCell>
        <mxCell id="VvvtwUxV3Y3XeBkal5bb-65" value="&lt;div style=&quot;border-color: var(--border-color);&quot;&gt;&lt;div style=&quot;border-color: var(--border-color);&quot;&gt;&lt;b style=&quot;&quot;&gt;&lt;font style=&quot;font-size: 16px;&quot;&gt;Once the order is confirmed, the product&amp;nbsp;&lt;/font&gt;&lt;/b&gt;&lt;/div&gt;&lt;div style=&quot;border-color: var(--border-color);&quot;&gt;&lt;b&gt;&lt;font size=&quot;3&quot;&gt;unit is selected using&amp;nbsp;&lt;/font&gt;&lt;/b&gt;&lt;/div&gt;&lt;div style=&quot;border-color: var(--border-color);&quot;&gt;&lt;b&gt;&lt;font size=&quot;3&quot;&gt;the system which is&amp;nbsp;&amp;nbsp;&lt;/font&gt;&lt;/b&gt;&lt;/div&gt;&lt;div style=&quot;border-color: var(--border-color);&quot;&gt;&lt;b style=&quot;&quot;&gt;&lt;font size=&quot;3&quot;&gt;based-on BBD.&amp;nbsp;&lt;/font&gt;&lt;/b&gt;&lt;br&gt;&lt;/div&gt;&lt;/div&gt;" style="ellipse;whiteSpace=wrap;html=1;labelBackgroundColor=none;fillColor=#F2CC8F;strokeColor=#3333FF;fontColor=#393C56;rounded=1;strokeWidth=4;" vertex="1" parent="c24vGAHCg1jIvO7zasiV-32">
          <mxGeometry x="600" y="517.2377755102041" width="191.72" height="147.6069931972789" as="geometry" />
        </mxCell>
        <mxCell id="VvvtwUxV3Y3XeBkal5bb-66" value="" style="endArrow=block;dashed=1;endFill=0;endSize=12;html=1;rounded=1;fontFamily=Helvetica;fontSize=12;fontColor=default;labelBackgroundColor=none;strokeColor=#E07A5F;strokeWidth=4;entryX=0;entryY=0.5;entryDx=0;entryDy=0;" edge="1" parent="c24vGAHCg1jIvO7zasiV-32" target="VvvtwUxV3Y3XeBkal5bb-65">
          <mxGeometry width="160" relative="1" as="geometry">
            <mxPoint x="501.5" y="591.5979591836735" as="sourcePoint" />
            <mxPoint x="611.5" y="594.4285714285714" as="targetPoint" />
          </mxGeometry>
        </mxCell>
        <mxCell id="VvvtwUxV3Y3XeBkal5bb-67" value="&lt;font style=&quot;font-size: 14px;&quot;&gt;&lt;b style=&quot;&quot;&gt;&amp;lt;&amp;lt;Include&amp;gt;&amp;gt;&lt;/b&gt;&lt;/font&gt;" style="text;html=1;align=center;verticalAlign=middle;whiteSpace=wrap;rounded=1;labelBackgroundColor=none;fontColor=#393C56;strokeWidth=3;" vertex="1" parent="c24vGAHCg1jIvO7zasiV-32">
          <mxGeometry x="220" y="560.0460680272108" width="60" height="18.87074829931973" as="geometry" />
        </mxCell>
        <mxCell id="VvvtwUxV3Y3XeBkal5bb-68" value="&lt;font style=&quot;font-size: 14px;&quot;&gt;&lt;b style=&quot;&quot;&gt;&amp;lt;&amp;lt;Include&amp;gt;&amp;gt;&lt;/b&gt;&lt;/font&gt;" style="text;html=1;align=center;verticalAlign=middle;whiteSpace=wrap;rounded=1;labelBackgroundColor=none;fontColor=#393C56;" vertex="1" parent="c24vGAHCg1jIvO7zasiV-32">
          <mxGeometry x="520" y="564.4901292517006" width="60" height="18.87074829931973" as="geometry" />
        </mxCell>
        <mxCell id="VvvtwUxV3Y3XeBkal5bb-71" value="&lt;b style=&quot;&quot;&gt;&lt;font style=&quot;font-size: 16px;&quot;&gt;Handling orders/Booking out of Products&lt;/font&gt;&lt;/b&gt;" style="ellipse;whiteSpace=wrap;html=1;labelBackgroundColor=none;fillColor=#F2CC8F;strokeColor=#3333FF;fontColor=#393C56;rounded=1;strokeWidth=4;" vertex="1" parent="c24vGAHCg1jIvO7zasiV-32">
          <mxGeometry x="60.86155444200854" y="685.9500676347461" width="169.13978494623655" height="120.02884615384615" as="geometry" />
        </mxCell>
        <mxCell id="VvvtwUxV3Y3XeBkal5bb-75" value="&lt;div style=&quot;border-color: var(--border-color);&quot;&gt;&lt;div style=&quot;border-color: var(--border-color);&quot;&gt;&lt;div style=&quot;border-color: var(--border-color);&quot;&gt;&lt;b style=&quot;&quot;&gt;&lt;font style=&quot;font-size: 16px;&quot;&gt;Then each quantity&amp;nbsp;&lt;/font&gt;&lt;/b&gt;&lt;/div&gt;&lt;div style=&quot;border-color: var(--border-color);&quot;&gt;&lt;b&gt;&lt;font size=&quot;3&quot;&gt;unit would be&amp;nbsp;&lt;/font&gt;&lt;/b&gt;&lt;/div&gt;&lt;div style=&quot;border-color: var(--border-color);&quot;&gt;&lt;b&gt;&lt;font size=&quot;3&quot;&gt;given a unique&lt;/font&gt;&lt;/b&gt;&lt;/div&gt;&lt;div style=&quot;border-color: var(--border-color);&quot;&gt;&lt;b style=&quot;&quot;&gt;&lt;font size=&quot;3&quot;&gt;&amp;nbsp;SKU code.&lt;/font&gt;&lt;/b&gt;&lt;/div&gt;&lt;/div&gt;&lt;/div&gt;" style="ellipse;whiteSpace=wrap;html=1;labelBackgroundColor=none;fillColor=#F2CC8F;strokeColor=#3333FF;fontColor=#393C56;rounded=1;strokeWidth=4;" vertex="1" parent="c24vGAHCg1jIvO7zasiV-32">
          <mxGeometry x="611.5" y="386.001156462585" width="158.5" height="116.05510204081634" as="geometry" />
        </mxCell>
        <mxCell id="VvvtwUxV3Y3XeBkal5bb-76" value="" style="endArrow=block;dashed=1;endFill=0;endSize=12;html=1;rounded=1;fontFamily=Helvetica;fontSize=12;fontColor=default;labelBackgroundColor=none;strokeColor=#E07A5F;exitX=1;exitY=0.5;exitDx=0;exitDy=0;strokeWidth=4;" edge="1" parent="c24vGAHCg1jIvO7zasiV-32">
          <mxGeometry width="160" relative="1" as="geometry">
            <mxPoint x="520" y="445.30248299319726" as="sourcePoint" />
            <mxPoint x="620" y="442.5190476190476" as="targetPoint" />
          </mxGeometry>
        </mxCell>
        <mxCell id="VvvtwUxV3Y3XeBkal5bb-246" value="" style="edgeStyle=orthogonalEdgeStyle;rounded=0;orthogonalLoop=1;jettySize=auto;html=1;" edge="1" parent="c24vGAHCg1jIvO7zasiV-32" source="VvvtwUxV3Y3XeBkal5bb-80" target="VvvtwUxV3Y3XeBkal5bb-82">
          <mxGeometry relative="1" as="geometry" />
        </mxCell>
        <mxCell id="VvvtwUxV3Y3XeBkal5bb-80" value="&lt;b style=&quot;&quot;&gt;&lt;font style=&quot;font-size: 16px;&quot;&gt;Creation/editing/&lt;/font&gt;&lt;/b&gt;&lt;div&gt;&lt;b&gt;&lt;font size=&quot;3&quot;&gt;deletion of new product/ingredient&amp;nbsp;&lt;/font&gt;&lt;/b&gt;&lt;/div&gt;&lt;div&gt;&lt;b style=&quot;&quot;&gt;&lt;font size=&quot;3&quot;&gt;types&lt;/font&gt;&lt;/b&gt;&lt;br&gt;&lt;/div&gt;" style="ellipse;whiteSpace=wrap;html=1;labelBackgroundColor=none;fillColor=#F2CC8F;strokeColor=#3333FF;fontColor=#393C56;rounded=1;strokeWidth=4;" vertex="1" parent="c24vGAHCg1jIvO7zasiV-32">
          <mxGeometry x="325.27155444200855" y="685.9500676347461" width="169.13978494623655" height="120.02884615384615" as="geometry" />
        </mxCell>
        <mxCell id="VvvtwUxV3Y3XeBkal5bb-82" value="&lt;font style=&quot;font-size: 14px;&quot;&gt;&lt;b style=&quot;&quot;&gt;&amp;lt;&amp;lt;Include&amp;gt;&amp;gt;&lt;/b&gt;&lt;/font&gt;" style="text;html=1;align=center;verticalAlign=middle;whiteSpace=wrap;rounded=1;labelBackgroundColor=none;fontColor=#393C56;" vertex="1" parent="c24vGAHCg1jIvO7zasiV-32">
          <mxGeometry x="247.2" y="726.5238095238095" width="60" height="18.87074829931973" as="geometry" />
        </mxCell>
        <mxCell id="VvvtwUxV3Y3XeBkal5bb-83" value="" style="endArrow=block;dashed=1;endFill=0;endSize=12;html=1;rounded=1;fontFamily=Helvetica;fontSize=12;fontColor=default;labelBackgroundColor=none;strokeColor=#E07A5F;strokeWidth=4;entryX=0;entryY=0.5;entryDx=0;entryDy=0;" edge="1" parent="c24vGAHCg1jIvO7zasiV-32">
          <mxGeometry width="160" relative="1" as="geometry">
            <mxPoint x="227.95" y="752.9428571428572" as="sourcePoint" />
            <mxPoint x="326.45" y="751.9993197278911" as="targetPoint" />
          </mxGeometry>
        </mxCell>
        <mxCell id="VvvtwUxV3Y3XeBkal5bb-84" value="&lt;span style=&quot;font-size: 14px;&quot;&gt;&lt;b&gt;Access data analytics&amp;nbsp;&lt;/b&gt;&lt;/span&gt;&lt;div&gt;&lt;span style=&quot;font-size: 14px;&quot;&gt;&lt;b&gt;for . .&amp;nbsp;&lt;/b&gt;&lt;/span&gt;&lt;b style=&quot;font-size: 14px; background-color: initial;&quot;&gt;.&amp;nbsp;&lt;/b&gt;&lt;/div&gt;" style="ellipse;whiteSpace=wrap;html=1;labelBackgroundColor=none;fillColor=#F2CC8F;strokeColor=#00FF00;fontColor=#393C56;rounded=1;strokeWidth=4;" vertex="1" parent="c24vGAHCg1jIvO7zasiV-32">
          <mxGeometry x="180" y="816.9959659863946" width="177.74" height="129.462768707483" as="geometry" />
        </mxCell>
        <mxCell id="VvvtwUxV3Y3XeBkal5bb-86" value="" style="endArrow=block;dashed=1;endFill=0;endSize=12;html=1;rounded=1;fontFamily=Helvetica;fontSize=12;fontColor=default;labelBackgroundColor=none;strokeColor=#E07A5F;strokeWidth=4;entryX=0;entryY=0.5;entryDx=0;entryDy=0;" edge="1" parent="c24vGAHCg1jIvO7zasiV-32">
          <mxGeometry width="160" relative="1" as="geometry">
            <mxPoint x="200" y="1034.117006802721" as="sourcePoint" />
            <mxPoint x="315" y="1034.201925170068" as="targetPoint" />
          </mxGeometry>
        </mxCell>
        <mxCell id="VvvtwUxV3Y3XeBkal5bb-87" value="&lt;font style=&quot;font-size: 14px;&quot;&gt;&lt;b style=&quot;&quot;&gt;&amp;lt;&amp;lt;Include&amp;gt;&amp;gt;&lt;/b&gt;&lt;/font&gt;" style="text;html=1;align=center;verticalAlign=middle;whiteSpace=wrap;rounded=1;labelBackgroundColor=none;fontColor=#393C56;" vertex="1" parent="c24vGAHCg1jIvO7zasiV-32">
          <mxGeometry x="220" y="1009.5850340136054" width="60" height="18.87074829931973" as="geometry" />
        </mxCell>
        <mxCell id="VvvtwUxV3Y3XeBkal5bb-88" value="&lt;b style=&quot;&quot;&gt;&lt;font style=&quot;font-size: 16px;&quot;&gt;Inventory nearing expiration and Low stock count.&amp;nbsp;&lt;/font&gt;&lt;/b&gt;" style="ellipse;whiteSpace=wrap;html=1;labelBackgroundColor=none;fillColor=#F2CC8F;strokeColor=#00FF00;fontColor=#393C56;rounded=1;strokeWidth=4;" vertex="1" parent="c24vGAHCg1jIvO7zasiV-32">
          <mxGeometry x="315" y="986.35" width="155" height="102.68" as="geometry" />
        </mxCell>
        <mxCell id="VvvtwUxV3Y3XeBkal5bb-89" value="" style="endArrow=block;dashed=1;endFill=0;endSize=12;html=1;rounded=1;fontFamily=Helvetica;fontSize=12;fontColor=default;labelBackgroundColor=none;strokeColor=#E07A5F;strokeWidth=4;entryX=0;entryY=0.5;entryDx=0;entryDy=0;" edge="1" parent="c24vGAHCg1jIvO7zasiV-32">
          <mxGeometry width="160" relative="1" as="geometry">
            <mxPoint x="270.27" y="1175.732537414966" as="sourcePoint" />
            <mxPoint x="385.27" y="1175.817455782313" as="targetPoint" />
          </mxGeometry>
        </mxCell>
        <mxCell id="VvvtwUxV3Y3XeBkal5bb-90" value="&lt;font style=&quot;font-size: 14px;&quot;&gt;&lt;b style=&quot;&quot;&gt;&amp;lt;&amp;lt;Include&amp;gt;&amp;gt;&lt;/b&gt;&lt;/font&gt;" style="text;html=1;align=center;verticalAlign=middle;whiteSpace=wrap;rounded=1;labelBackgroundColor=none;fontColor=#393C56;strokeWidth=6;" vertex="1" parent="c24vGAHCg1jIvO7zasiV-32">
          <mxGeometry x="290" y="1147.0004081632653" width="60" height="18.87074829931973" as="geometry" />
        </mxCell>
        <mxCell id="VvvtwUxV3Y3XeBkal5bb-93" value="" style="endArrow=none;html=1;rounded=1;curved=0;labelBackgroundColor=none;fontColor=default;strokeColor=#3333FF;strokeWidth=4;" edge="1" parent="c24vGAHCg1jIvO7zasiV-32">
          <mxGeometry width="50" height="50" relative="1" as="geometry">
            <mxPoint x="-20" y="317" as="sourcePoint" />
            <mxPoint x="50" y="317" as="targetPoint" />
          </mxGeometry>
        </mxCell>
        <mxCell id="VvvtwUxV3Y3XeBkal5bb-167" value="" style="endArrow=none;html=1;rounded=1;curved=0;labelBackgroundColor=none;fontColor=default;strokeColor=#3333FF;strokeWidth=4;" edge="1" parent="c24vGAHCg1jIvO7zasiV-32">
          <mxGeometry width="50" height="50" relative="1" as="geometry">
            <mxPoint x="-20" y="757" as="sourcePoint" />
            <mxPoint x="60" y="757" as="targetPoint" />
          </mxGeometry>
        </mxCell>
        <mxCell id="VvvtwUxV3Y3XeBkal5bb-168" value="" style="endArrow=none;html=1;rounded=1;curved=0;labelBackgroundColor=none;fontColor=default;strokeColor=#00FF00;strokeWidth=4;" edge="1" parent="c24vGAHCg1jIvO7zasiV-32">
          <mxGeometry width="50" height="50" relative="1" as="geometry">
            <mxPoint x="-40" y="877" as="sourcePoint" />
            <mxPoint x="180" y="877" as="targetPoint" />
          </mxGeometry>
        </mxCell>
        <mxCell id="VvvtwUxV3Y3XeBkal5bb-169" value="" style="endArrow=none;html=1;rounded=1;curved=0;labelBackgroundColor=none;fontColor=default;strokeColor=#00FF00;strokeWidth=4;" edge="1" parent="c24vGAHCg1jIvO7zasiV-32">
          <mxGeometry width="50" height="50" relative="1" as="geometry">
            <mxPoint x="-40" y="1036.78" as="sourcePoint" />
            <mxPoint x="60" y="1037" as="targetPoint" />
          </mxGeometry>
        </mxCell>
        <mxCell id="VvvtwUxV3Y3XeBkal5bb-239" value="&lt;b style=&quot;background-color: initial;&quot;&gt;&lt;font style=&quot;font-size: 16px;&quot;&gt;Purchase orders, Products, and&amp;nbsp;&lt;/font&gt;&lt;/b&gt;&lt;div&gt;&lt;b style=&quot;&quot;&gt;&lt;font size=&quot;3&quot;&gt;Inventory levels.&amp;nbsp;&lt;/font&gt;&lt;/b&gt;&lt;/div&gt;" style="ellipse;whiteSpace=wrap;html=1;labelBackgroundColor=none;fillColor=#F2CC8F;strokeColor=#00FF00;fontColor=#393C56;rounded=1;strokeWidth=4;" vertex="1" parent="c24vGAHCg1jIvO7zasiV-32">
          <mxGeometry x="433.76" y="816.9959659863946" width="177.74" height="129.462768707483" as="geometry" />
        </mxCell>
        <mxCell id="VvvtwUxV3Y3XeBkal5bb-240" value="" style="endArrow=block;dashed=1;endFill=0;endSize=12;html=1;rounded=1;fontFamily=Helvetica;fontSize=12;fontColor=default;labelBackgroundColor=none;strokeColor=#E07A5F;strokeWidth=4;" edge="1" parent="c24vGAHCg1jIvO7zasiV-32">
          <mxGeometry width="160" relative="1" as="geometry">
            <mxPoint x="355.37" y="881.7628571428572" as="sourcePoint" />
            <mxPoint x="440" y="881" as="targetPoint" />
          </mxGeometry>
        </mxCell>
        <mxCell id="VvvtwUxV3Y3XeBkal5bb-241" value="&lt;font style=&quot;font-size: 14px;&quot;&gt;&lt;b style=&quot;&quot;&gt;&amp;lt;&amp;lt;Include&amp;gt;&amp;gt;&lt;/b&gt;&lt;/font&gt;" style="text;html=1;align=center;verticalAlign=middle;whiteSpace=wrap;rounded=1;labelBackgroundColor=none;fontColor=#393C56;" vertex="1" parent="c24vGAHCg1jIvO7zasiV-32">
          <mxGeometry x="360" y="857.0038095238095" width="60" height="18.87074829931973" as="geometry" />
        </mxCell>
        <mxCell id="VvvtwUxV3Y3XeBkal5bb-242" value="" style="endArrow=block;dashed=1;endFill=0;endSize=12;html=1;rounded=1;fontFamily=Helvetica;fontSize=12;fontColor=default;labelBackgroundColor=none;strokeColor=#E07A5F;exitX=1;exitY=0.5;exitDx=0;exitDy=0;strokeWidth=4;entryX=0.029;entryY=0.359;entryDx=0;entryDy=0;entryPerimeter=0;" edge="1" parent="c24vGAHCg1jIvO7zasiV-32" target="6umlBVhiPSJkJ3J8HWIS-40">
          <mxGeometry width="160" relative="1" as="geometry">
            <mxPoint x="297.74" y="142.92248299319726" as="sourcePoint" />
            <mxPoint x="397.74" y="140.13904761904763" as="targetPoint" />
          </mxGeometry>
        </mxCell>
        <mxCell id="VvvtwUxV3Y3XeBkal5bb-244" value="&lt;font style=&quot;font-size: 14px;&quot;&gt;&lt;b style=&quot;&quot;&gt;&amp;lt;&amp;lt;Include&amp;gt;&amp;gt;&lt;/b&gt;&lt;/font&gt;" style="text;html=1;align=center;verticalAlign=middle;whiteSpace=wrap;rounded=1;labelBackgroundColor=none;fontColor=#393C56;" vertex="1" parent="c24vGAHCg1jIvO7zasiV-32">
          <mxGeometry x="325.27" y="110.39284353741493" width="60" height="18.87074829931973" as="geometry" />
        </mxCell>
        <mxCell id="VvvtwUxV3Y3XeBkal5bb-245" value="&lt;font style=&quot;font-size: 14px;&quot;&gt;&lt;b style=&quot;&quot;&gt;&amp;lt;&amp;lt;Include&amp;gt;&amp;gt;&lt;/b&gt;&lt;/font&gt;" style="text;html=1;align=center;verticalAlign=middle;whiteSpace=wrap;rounded=1;labelBackgroundColor=none;fontColor=#393C56;" vertex="1" parent="c24vGAHCg1jIvO7zasiV-32">
          <mxGeometry x="530" y="421.2336734693877" width="60" height="18.87074829931973" as="geometry" />
        </mxCell>
        <mxCell id="VvvtwUxV3Y3XeBkal5bb-247" style="edgeStyle=orthogonalEdgeStyle;rounded=0;orthogonalLoop=1;jettySize=auto;html=1;exitX=0.75;exitY=0;exitDx=0;exitDy=0;entryX=1;entryY=0.25;entryDx=0;entryDy=0;" edge="1" parent="c24vGAHCg1jIvO7zasiV-32" source="c24vGAHCg1jIvO7zasiV-97" target="c24vGAHCg1jIvO7zasiV-97">
          <mxGeometry relative="1" as="geometry" />
        </mxCell>
        <mxCell id="8YTMbCoc6SCKFpwDmsTR-1" value="" style="endArrow=none;html=1;rounded=1;curved=0;labelBackgroundColor=none;fontColor=default;strokeColor=#8500CC;strokeWidth=4;" edge="1" parent="c24vGAHCg1jIvO7zasiV-32">
          <mxGeometry width="50" height="50" relative="1" as="geometry">
            <mxPoint x="1125.4301941747572" y="339.2914285714286" as="sourcePoint" />
            <mxPoint x="1230" y="339" as="targetPoint" />
          </mxGeometry>
        </mxCell>
        <mxCell id="6umlBVhiPSJkJ3J8HWIS-3" value="&lt;font style=&quot;font-size: 18px;&quot;&gt;&lt;b&gt;Managers&lt;/b&gt;&lt;/font&gt;" style="shape=umlActor;verticalLabelPosition=bottom;verticalAlign=top;html=1;outlineConnect=0;labelBackgroundColor=none;fillColor=#F2CC8F;strokeColor=#E07A5F;fontColor=#393C56;rounded=1;strokeWidth=4;" vertex="1" parent="1">
          <mxGeometry x="1350" y="1530" width="80" height="130" as="geometry" />
        </mxCell>
        <mxCell id="6umlBVhiPSJkJ3J8HWIS-7" value="&lt;font style=&quot;font-size: 18px;&quot;&gt;&lt;b&gt;&lt;font style=&quot;&quot;&gt;Production &lt;br&gt;Staff Members&lt;/font&gt;&amp;nbsp;&lt;/b&gt;&lt;/font&gt;" style="shape=umlActor;verticalLabelPosition=bottom;verticalAlign=top;html=1;outlineConnect=0;labelBackgroundColor=none;fillColor=#000000;strokeColor=#3333FF;fontColor=#393C56;rounded=1;strokeWidth=4;" vertex="1" parent="1">
          <mxGeometry x="1280" y="970" width="70" height="120" as="geometry" />
        </mxCell>
        <mxCell id="6umlBVhiPSJkJ3J8HWIS-77" value="&lt;font style=&quot;font-size: 18px;&quot;&gt;&lt;b&gt;External&amp;nbsp; &amp;nbsp;Vendors&lt;/b&gt;&lt;/font&gt;" style="shape=umlActor;verticalLabelPosition=bottom;verticalAlign=top;html=1;outlineConnect=0;labelBackgroundColor=none;fillColor=#000000;strokeColor=#8500CC;fontColor=#393C56;rounded=1;strokeWidth=4;" vertex="1" parent="1">
          <mxGeometry x="2900" y="910" width="70" height="120" as="geometry" />
        </mxCell>
        <mxCell id="c24vGAHCg1jIvO7zasiV-45" value="" style="endArrow=none;html=1;rounded=1;curved=0;labelBackgroundColor=none;fontColor=default;strokeColor=#FF0000;strokeWidth=4;" edge="1" parent="1">
          <mxGeometry width="50" height="50" relative="1" as="geometry">
            <mxPoint x="1170" y="710" as="sourcePoint" />
            <mxPoint x="1170" y="1360" as="targetPoint" />
          </mxGeometry>
        </mxCell>
        <mxCell id="c24vGAHCg1jIvO7zasiV-56" value="" style="endArrow=none;html=1;rounded=1;curved=0;labelBackgroundColor=none;fontColor=default;strokeColor=#8500CC;strokeWidth=4;" edge="1" parent="1">
          <mxGeometry width="50" height="50" relative="1" as="geometry">
            <mxPoint x="2720" y="1240" as="sourcePoint" />
            <mxPoint x="2820" y="1240" as="targetPoint" />
          </mxGeometry>
        </mxCell>
        <mxCell id="c24vGAHCg1jIvO7zasiV-82" value="" style="endArrow=none;html=1;rounded=1;curved=0;labelBackgroundColor=none;fontColor=default;strokeColor=#000000;strokeWidth=4;" edge="1" parent="1">
          <mxGeometry width="50" height="50" relative="1" as="geometry">
            <mxPoint x="2840.14" y="1100.0046153846154" as="sourcePoint" />
            <mxPoint x="3029.85" y="1100.0046153846154" as="targetPoint" />
          </mxGeometry>
        </mxCell>
        <mxCell id="c24vGAHCg1jIvO7zasiV-83" value="" style="endArrow=none;html=1;rounded=1;curved=0;labelBackgroundColor=none;fontColor=default;strokeColor=#000000;strokeWidth=4;" edge="1" parent="1">
          <mxGeometry width="50" height="50" relative="1" as="geometry">
            <mxPoint x="2934.1800000000003" y="990.0043396226415" as="sourcePoint" />
            <mxPoint x="2934.09" y="1100" as="targetPoint" />
          </mxGeometry>
        </mxCell>
        <mxCell id="c24vGAHCg1jIvO7zasiV-84" value="" style="endArrow=none;html=1;rounded=1;curved=0;labelBackgroundColor=none;fontColor=default;strokeColor=#000000;strokeWidth=4;" edge="1" parent="1">
          <mxGeometry width="50" height="50" relative="1" as="geometry">
            <mxPoint x="3030.09" y="1100.0043396226415" as="sourcePoint" />
            <mxPoint x="3030" y="1220" as="targetPoint" />
          </mxGeometry>
        </mxCell>
        <mxCell id="c24vGAHCg1jIvO7zasiV-85" value="" style="endArrow=none;html=1;rounded=1;curved=0;labelBackgroundColor=none;fontColor=default;strokeColor=#000000;strokeWidth=4;" edge="1" parent="1">
          <mxGeometry width="50" height="50" relative="1" as="geometry">
            <mxPoint x="2840.09" y="1100.0043396226415" as="sourcePoint" />
            <mxPoint x="2840" y="1220" as="targetPoint" />
          </mxGeometry>
        </mxCell>
        <mxCell id="c24vGAHCg1jIvO7zasiV-86" value="&lt;font style=&quot;font-size: 18px;&quot;&gt;&lt;b&gt;New&lt;/b&gt;&lt;/font&gt;" style="shape=umlActor;verticalLabelPosition=bottom;verticalAlign=top;html=1;outlineConnect=0;labelBackgroundColor=none;fillColor=#000000;strokeColor=#8500CC;fontColor=#393C56;rounded=1;strokeWidth=4;" vertex="1" parent="1">
          <mxGeometry x="2810" y="1223.75" width="70" height="120" as="geometry" />
        </mxCell>
        <mxCell id="c24vGAHCg1jIvO7zasiV-87" value="&lt;font style=&quot;font-size: 18px;&quot;&gt;&lt;b&gt;Old&lt;/b&gt;&lt;/font&gt;" style="shape=umlActor;verticalLabelPosition=bottom;verticalAlign=top;html=1;outlineConnect=0;labelBackgroundColor=none;fillColor=#000000;strokeColor=#8500CC;fontColor=#393C56;rounded=1;strokeWidth=4;" vertex="1" parent="1">
          <mxGeometry x="3000" y="1220" width="70" height="120" as="geometry" />
        </mxCell>
        <mxCell id="c24vGAHCg1jIvO7zasiV-102" value="" style="endArrow=none;html=1;rounded=1;curved=0;labelBackgroundColor=none;fontColor=default;strokeColor=#8500CC;strokeWidth=4;" edge="1" parent="1">
          <mxGeometry width="50" height="50" relative="1" as="geometry">
            <mxPoint x="3040" y="1370" as="sourcePoint" />
            <mxPoint x="3040" y="1680" as="targetPoint" />
          </mxGeometry>
        </mxCell>
        <mxCell id="c24vGAHCg1jIvO7zasiV-103" value="" style="endArrow=none;html=1;rounded=1;curved=0;labelBackgroundColor=none;fontColor=default;strokeColor=#8500CC;strokeWidth=4;exitX=0.978;exitY=0.499;exitDx=0;exitDy=0;exitPerimeter=0;" edge="1" parent="1">
          <mxGeometry width="50" height="50" relative="1" as="geometry">
            <mxPoint x="2559.9567400000005" y="1389.9990042176873" as="sourcePoint" />
            <mxPoint x="3040" y="1390.48" as="targetPoint" />
          </mxGeometry>
        </mxCell>
        <mxCell id="c24vGAHCg1jIvO7zasiV-104" value="" style="endArrow=none;html=1;rounded=1;curved=0;labelBackgroundColor=none;fontColor=default;strokeColor=#8500CC;strokeWidth=4;exitX=1;exitY=0.5;exitDx=0;exitDy=0;" edge="1" parent="1">
          <mxGeometry width="50" height="50" relative="1" as="geometry">
            <mxPoint x="2645" y="1540" as="sourcePoint" />
            <mxPoint x="3045" y="1540" as="targetPoint" />
          </mxGeometry>
        </mxCell>
        <mxCell id="c24vGAHCg1jIvO7zasiV-105" value="" style="endArrow=none;html=1;rounded=1;curved=0;labelBackgroundColor=none;fontColor=default;strokeColor=#8500CC;strokeWidth=4;exitX=1;exitY=0.5;exitDx=0;exitDy=0;" edge="1" parent="1" source="yAOkFR-ZNXgE0mWEb_px-14">
          <mxGeometry width="50" height="50" relative="1" as="geometry">
            <mxPoint x="2610" y="1740" as="sourcePoint" />
            <mxPoint x="3040" y="1681" as="targetPoint" />
          </mxGeometry>
        </mxCell>
        <mxCell id="5ZjHrZqPGNpx0JmI3Ot3-3" value="" style="endArrow=none;html=1;rounded=1;curved=0;labelBackgroundColor=none;fontColor=default;strokeColor=#00FF00;strokeWidth=4;" edge="1" parent="1">
          <mxGeometry width="50" height="50" relative="1" as="geometry">
            <mxPoint x="1450" y="790" as="sourcePoint" />
            <mxPoint x="1450" y="1680" as="targetPoint" />
          </mxGeometry>
        </mxCell>
        <mxCell id="5ZjHrZqPGNpx0JmI3Ot3-4" value="" style="endArrow=none;html=1;rounded=1;curved=0;labelBackgroundColor=none;fontColor=default;strokeColor=#3333FF;strokeWidth=4;" edge="1" parent="1">
          <mxGeometry width="50" height="50" relative="1" as="geometry">
            <mxPoint x="1380" y="1350" as="sourcePoint" />
            <mxPoint x="1470" y="1350" as="targetPoint" />
          </mxGeometry>
        </mxCell>
        <mxCell id="c24vGAHCg1jIvO7zasiV-57" value="" style="endArrow=none;html=1;rounded=1;curved=0;labelBackgroundColor=none;fontColor=default;strokeColor=#8500CC;strokeWidth=4;" edge="1" parent="1">
          <mxGeometry width="50" height="50" relative="1" as="geometry">
            <mxPoint x="2720" y="742.31" as="sourcePoint" />
            <mxPoint x="2720" y="1240" as="targetPoint" />
          </mxGeometry>
        </mxCell>
        <mxCell id="5ZjHrZqPGNpx0JmI3Ot3-23" value="" style="endArrow=none;html=1;rounded=1;curved=0;labelBackgroundColor=none;fontColor=default;strokeColor=#000000;strokeWidth=4;" edge="1" parent="1">
          <mxGeometry width="50" height="50" relative="1" as="geometry">
            <mxPoint x="1210.1399999999999" y="1180.0046153846154" as="sourcePoint" />
            <mxPoint x="1370" y="1180" as="targetPoint" />
          </mxGeometry>
        </mxCell>
        <mxCell id="5ZjHrZqPGNpx0JmI3Ot3-24" value="" style="endArrow=none;html=1;rounded=1;curved=0;labelBackgroundColor=none;fontColor=default;strokeColor=#000000;strokeWidth=4;" edge="1" parent="1">
          <mxGeometry width="50" height="50" relative="1" as="geometry">
            <mxPoint x="1374.0900000000001" y="1180.0043396226415" as="sourcePoint" />
            <mxPoint x="1374" y="1300" as="targetPoint" />
          </mxGeometry>
        </mxCell>
        <mxCell id="5ZjHrZqPGNpx0JmI3Ot3-25" value="" style="endArrow=none;html=1;rounded=1;curved=0;labelBackgroundColor=none;fontColor=default;strokeColor=#000000;strokeWidth=4;" edge="1" parent="1">
          <mxGeometry width="50" height="50" relative="1" as="geometry">
            <mxPoint x="1210.0900000000001" y="1180.0043396226415" as="sourcePoint" />
            <mxPoint x="1210" y="1300" as="targetPoint" />
          </mxGeometry>
        </mxCell>
        <mxCell id="5ZjHrZqPGNpx0JmI3Ot3-26" value="&lt;font style=&quot;font-size: 18px;&quot;&gt;&lt;b&gt;New&lt;/b&gt;&lt;/font&gt;" style="shape=umlActor;verticalLabelPosition=bottom;verticalAlign=top;html=1;outlineConnect=0;labelBackgroundColor=none;fillColor=#000000;strokeColor=#3333FF;fontColor=#393C56;rounded=1;strokeWidth=4;" vertex="1" parent="1">
          <mxGeometry x="1180" y="1303.75" width="70" height="120" as="geometry" />
        </mxCell>
        <mxCell id="5ZjHrZqPGNpx0JmI3Ot3-27" value="&lt;font style=&quot;font-size: 18px;&quot;&gt;&lt;b&gt;Old&lt;/b&gt;&lt;/font&gt;" style="shape=umlActor;verticalLabelPosition=bottom;verticalAlign=top;html=1;outlineConnect=0;labelBackgroundColor=none;fillColor=#000000;strokeColor=#3333FF;fontColor=#393C56;rounded=1;strokeWidth=4;" vertex="1" parent="1">
          <mxGeometry x="1340" y="1300" width="70" height="120" as="geometry" />
        </mxCell>
        <mxCell id="5ZjHrZqPGNpx0JmI3Ot3-28" value="" style="endArrow=none;html=1;rounded=1;curved=0;labelBackgroundColor=none;fontColor=default;strokeColor=#000000;strokeWidth=4;" edge="1" parent="1">
          <mxGeometry width="50" height="50" relative="1" as="geometry">
            <mxPoint x="1314.0900000000001" y="1130.0043396226415" as="sourcePoint" />
            <mxPoint x="1314" y="1180" as="targetPoint" />
          </mxGeometry>
        </mxCell>
        <mxCell id="5ZjHrZqPGNpx0JmI3Ot3-29" value="" style="endArrow=none;html=1;rounded=1;curved=0;labelBackgroundColor=none;fontColor=default;strokeColor=#FF0000;strokeWidth=4;" edge="1" parent="1">
          <mxGeometry width="50" height="50" relative="1" as="geometry">
            <mxPoint x="1170" y="1359" as="sourcePoint" />
            <mxPoint x="1199.7099999999998" y="1359.0046153846154" as="targetPoint" />
          </mxGeometry>
        </mxCell>
        <mxCell id="5ZjHrZqPGNpx0JmI3Ot3-5" value="" style="endArrow=none;html=1;rounded=1;curved=0;labelBackgroundColor=none;fontColor=default;strokeColor=#3333FF;strokeWidth=4;" edge="1" parent="1">
          <mxGeometry width="50" height="50" relative="1" as="geometry">
            <mxPoint x="1470" y="1400" as="sourcePoint" />
            <mxPoint x="1470" y="960" as="targetPoint" />
          </mxGeometry>
        </mxCell>
        <mxCell id="5ZjHrZqPGNpx0JmI3Ot3-34" value="" style="endArrow=none;html=1;rounded=1;curved=0;labelBackgroundColor=none;fontColor=default;strokeColor=#CC6600;strokeWidth=4;exitX=0.576;exitY=0.712;exitDx=0;exitDy=0;exitPerimeter=0;" edge="1" parent="1">
          <mxGeometry width="50" height="50" relative="1" as="geometry">
            <mxPoint x="1389.4199999999998" y="1685.96" as="sourcePoint" />
            <mxPoint x="1389.09" y="1910" as="targetPoint" />
          </mxGeometry>
        </mxCell>
        <mxCell id="VvvtwUxV3Y3XeBkal5bb-91" value="" style="endArrow=none;html=1;rounded=1;curved=0;labelBackgroundColor=none;fontColor=default;strokeColor=#00FF00;strokeWidth=4;" edge="1" parent="1">
          <mxGeometry width="50" height="50" relative="1" as="geometry">
            <mxPoint x="1390" y="1580.1599999999999" as="sourcePoint" />
            <mxPoint x="1450" y="1580" as="targetPoint" />
          </mxGeometry>
        </mxCell>
        <mxCell id="VvvtwUxV3Y3XeBkal5bb-92" value="" style="endArrow=none;html=1;rounded=1;curved=0;labelBackgroundColor=none;fontColor=default;strokeColor=#00FF00;strokeWidth=4;" edge="1" parent="1">
          <mxGeometry width="50" height="50" relative="1" as="geometry">
            <mxPoint x="1380" y="1370.16" as="sourcePoint" />
            <mxPoint x="1450" y="1370" as="targetPoint" />
          </mxGeometry>
        </mxCell>
        <mxCell id="VvvtwUxV3Y3XeBkal5bb-94" value="" style="endArrow=none;html=1;rounded=1;curved=0;labelBackgroundColor=none;fontColor=default;strokeColor=#3333FF;strokeWidth=4;" edge="1" parent="1">
          <mxGeometry width="50" height="50" relative="1" as="geometry">
            <mxPoint x="1470.86" y="1076.6599999999999" as="sourcePoint" />
            <mxPoint x="1541" y="1077" as="targetPoint" />
          </mxGeometry>
        </mxCell>
        <mxCell id="VvvtwUxV3Y3XeBkal5bb-97" value="" style="endArrow=none;html=1;rounded=1;curved=0;labelBackgroundColor=none;fontColor=default;strokeColor=#3333FF;strokeWidth=4;" edge="1" parent="1">
          <mxGeometry width="50" height="50" relative="1" as="geometry">
            <mxPoint x="1470.86" y="1221.92" as="sourcePoint" />
            <mxPoint x="1541" y="1222" as="targetPoint" />
          </mxGeometry>
        </mxCell>
      </root>
    </mxGraphModel>
  </diagram>
</mxfile>
